<svg width="206" height="179" viewBox="0 0 206 179" fill="none" xmlns="http://www.w3.org/2000/svg">
<path d="M56.0818 61.822L25.4719 89.3113L56.0818 116.801C57.097 117.697 57.9374 118.802 58.5546 120.05C59.1718 121.298 59.5535 122.666 59.6779 124.074C59.8022 125.483 59.6666 126.904 59.279 128.255C58.8913 129.606 58.2593 130.862 57.4192 131.949C56.5792 133.036 55.5478 133.933 54.3846 134.588C53.2213 135.243 51.9493 135.644 50.6417 135.766C49.3342 135.889 48.017 135.732 46.7662 135.303C45.5154 134.874 44.3556 134.183 43.3539 133.269L3.57922 97.5455C2.459 96.5398 1.55769 95.2808 0.939157 93.8578C0.320624 92.4348 0 90.8827 0 89.3113C0 87.7399 0.320624 86.1877 0.939157 84.7647C1.55769 83.3417 2.459 82.0827 3.57922 81.077L43.3539 45.3534C45.383 43.5612 47.9871 42.7058 50.5987 42.9736C53.2104 43.2415 55.618 44.6108 57.2971 46.7834C58.9761 48.9559 59.7906 51.7556 59.563 54.5724C59.3353 57.3892 58.0841 59.995 56.0818 61.822ZM201.922 81.077L162.148 45.3534C161.146 44.4394 159.986 43.7481 158.735 43.3195C157.485 42.8909 156.167 42.7335 154.86 42.8562C153.552 42.9789 152.28 43.3795 151.117 44.0347C149.954 44.6899 148.922 45.5868 148.082 46.6737C147.242 47.7606 146.61 49.016 146.223 50.3675C145.835 51.719 145.699 53.1398 145.824 54.5481C145.948 55.9563 146.33 57.3241 146.947 58.5725C147.564 59.8209 148.405 60.9253 149.42 61.822L180.03 89.3113L149.42 116.801C148.405 117.697 147.564 118.802 146.947 120.05C146.33 121.298 145.948 122.666 145.824 124.074C145.699 125.483 145.835 126.904 146.223 128.255C146.61 129.606 147.242 130.862 148.082 131.949C148.922 133.036 149.954 133.933 151.117 134.588C152.28 135.243 153.552 135.644 154.86 135.766C156.167 135.889 157.485 135.732 158.735 135.303C159.986 134.874 161.146 134.183 162.148 133.269L201.922 97.5455C203.043 96.5398 203.944 95.2808 204.562 93.8578C205.181 92.4348 205.502 90.8827 205.502 89.3113C205.502 87.7399 205.181 86.1877 204.562 84.7647C203.944 83.3417 203.043 82.0827 201.922 81.077ZM132.665 0.645333C131.437 0.164231 130.134 -0.0515327 128.829 0.0103665C127.524 0.0722658 126.243 0.410617 125.06 1.00609C123.876 1.60156 122.813 2.44249 121.931 3.48084C121.05 4.5192 120.366 5.73463 119.92 7.05772L66.8873 164.241C65.9883 166.912 66.11 169.858 67.2257 172.432C68.3413 175.006 70.3596 176.997 72.8369 177.968C73.9245 178.401 75.0749 178.622 76.2343 178.62C78.2759 178.621 80.2681 177.944 81.9404 176.681C83.6126 175.419 84.8838 173.633 85.5814 171.565L138.614 14.381C139.061 13.0581 139.261 11.6534 139.203 10.2471C139.146 8.84072 138.832 7.46037 138.28 6.18483C137.727 4.90929 136.947 3.76356 135.983 2.81308C135.02 1.8626 133.892 1.12599 132.665 0.645333Z" fill="url(#paint0_linear_12_46)"/>
<defs>
<linearGradient id="paint0_linear_12_46" x1="102.751" y1="0" x2="102.751" y2="178.62" gradientUnits="userSpaceOnUse">
<stop stopColor="#D8D8D8"/>
<stop offset="1" stopColor="#727272"/>
</linearGradient>
</defs>
</svg>
