<svg width="150" height="182" viewBox="0 0 150 182" fill="none" xmlns="http://www.w3.org/2000/svg">
<path fill-rule="evenodd" clip-rule="evenodd" d="M150 18.75V50.895C150 61.245 116.42 69.645 75 69.645C33.58 69.645 0 61.245 0 50.895V18.75C0 8.395 33.58 0 75 0C116.42 0 150 8.395 150 18.75ZM3.105 68.57C12.325 76.32 41.025 81.965 75 81.965C108.975 81.965 137.675 76.315 146.895 68.57C148.915 70.27 150 72.07 150 73.93V106.07C150 116.425 116.42 124.82 75 124.82C33.58 124.82 0 116.425 0 106.07V73.93C0 72.065 1.085 70.27 3.105 68.57ZM75 138.4C41.025 138.4 12.325 132.75 3.105 125.005C1.085 126.705 0 128.505 0 130.36V162.5C0 172.855 33.58 181.25 75 181.25C116.42 181.25 150 172.855 150 162.5V130.355C150 128.495 148.915 126.7 146.895 125C137.675 132.745 108.975 138.4 75 138.4ZM116.665 156.67C116.688 157.45 116.554 158.227 116.271 158.955C115.988 159.682 115.562 160.346 115.018 160.906C114.475 161.466 113.824 161.911 113.105 162.215C112.386 162.519 111.613 162.676 110.833 162.676C110.052 162.676 109.279 162.519 108.56 162.215C107.841 161.911 107.19 161.466 106.647 160.906C106.103 160.346 105.677 159.682 105.394 158.955C105.111 158.227 104.977 157.45 105 156.67C105.044 155.153 105.678 153.712 106.767 152.655C107.856 151.597 109.315 151.006 110.833 151.006C112.35 151.006 113.809 151.597 114.898 152.655C115.987 153.712 116.621 155.153 116.665 156.67ZM134.165 156.67C134.945 156.693 135.722 156.559 136.45 156.276C137.177 155.993 137.841 155.567 138.401 155.023C138.961 154.48 139.406 153.829 139.71 153.11C140.014 152.391 140.171 151.618 140.171 150.837C140.171 150.057 140.014 149.284 139.71 148.565C139.406 147.846 138.961 147.195 138.401 146.652C137.841 146.108 137.177 145.682 136.45 145.399C135.722 145.116 134.945 144.982 134.165 145.005C132.648 145.049 131.207 145.683 130.15 146.772C129.092 147.861 128.501 149.32 128.501 150.837C128.501 152.355 129.092 153.814 130.15 154.903C131.207 155.992 132.648 156.626 134.165 156.67Z" fill="url(#paint0_linear_14_3)"/>
<defs>
<linearGradient id="paint0_linear_14_3" x1="75" y1="0" x2="75" y2="181.25" gradientUnits="userSpaceOnUse">
<stop stop-color="#D8D8D8"/>
<stop offset="1" stop-color="#727272"/>
</linearGradient>
</defs>
</svg>
