<svg width="206" height="207" viewBox="0 0 206 207" fill="none" xmlns="http://www.w3.org/2000/svg">
<path d="M12.8438 193.171L78.282 127.733M160.686 98.6334L141.098 157.398C140.786 158.34 140.25 159.193 139.538 159.884C138.825 160.575 137.957 161.084 137.006 161.367L16.926 197.058C15.8442 197.379 14.695 197.398 13.6034 197.111C12.5119 196.825 11.5198 196.244 10.7352 195.433C9.95054 194.622 9.40342 193.611 9.15336 192.511C8.9033 191.41 8.95988 190.262 9.31692 189.192L48.3084 72.2381C48.5878 71.3984 49.0447 70.6286 49.6479 69.981C50.2511 69.3334 50.9866 68.8232 51.8044 68.485L107.197 45.6783C108.323 45.2132 109.561 45.0919 110.756 45.3298C111.951 45.5677 113.049 46.1541 113.911 47.015L159.195 92.3096C160.008 93.1207 160.577 94.1422 160.841 95.2594C161.104 96.3765 161.051 97.545 160.686 98.6334Z" stroke="url(#paint0_linear_12_40)" stroke-width="18" stroke-linecap="round" stroke-linejoin="round"/>
<path d="M161.9 95.0143L190.979 65.925C194.834 62.0684 197 56.8386 197 51.3854C197 45.9323 194.834 40.7024 190.979 36.8459L169.18 15.0263C167.27 13.1158 165.003 11.6002 162.507 10.5662C160.011 9.53221 157.336 9 154.635 9C151.934 9 149.259 9.53221 146.763 10.5662C144.268 11.6002 142 13.1158 140.09 15.0263L111.011 44.1157M100.091 105.914C98.6586 104.482 96.9579 103.346 95.0863 102.571C93.2146 101.797 91.2087 101.398 89.183 101.398C87.1574 101.399 85.1517 101.798 83.2804 102.574C81.4091 103.35 79.7089 104.486 78.2769 105.919C76.8449 107.352 75.7091 109.052 74.9343 110.924C74.1596 112.796 73.7611 114.802 73.7615 116.827C73.762 118.853 74.1615 120.859 74.9371 122.73C75.7127 124.601 76.8493 126.301 78.282 127.733C81.1755 130.626 85.0993 132.25 89.1903 132.249C93.2813 132.248 97.2044 130.622 100.096 127.728C102.989 124.835 104.613 120.911 104.612 116.82C104.611 112.729 102.985 108.806 100.091 105.914Z" stroke="url(#paint1_linear_12_40)" stroke-width="18" stroke-linecap="round" stroke-linejoin="round"/>
<defs>
<linearGradient id="paint0_linear_12_40" x1="85.0027" y1="45.2111" x2="85.0027" y2="197.313" gradientUnits="userSpaceOnUse">
<stop stop-color="#D8D8D8"/>
<stop offset="1" stop-color="#727272"/>
</linearGradient>
<linearGradient id="paint1_linear_12_40" x1="135.381" y1="9" x2="135.381" y2="132.249" gradientUnits="userSpaceOnUse">
<stop stop-color="#D8D8D8"/>
<stop offset="1" stop-color="#727272"/>
</linearGradient>
</defs>
</svg>
