<svg width="188" height="188" viewBox="0 0 188 188" fill="none" xmlns="http://www.w3.org/2000/svg">
<g clipPath="url(#clip0_12_47)">
<path d="M183.704 2.6805C186.421 4.88363 188 8.22504 188 11.75V64.625C188 74.3555 177.462 82.25 164.5 82.25C151.538 82.25 141 74.3555 141 64.625C141 54.8946 151.538 47 164.5 47V26.0703L129.25 33.1203V76.375C129.25 86.1055 118.712 94 105.75 94C92.7883 94 82.25 86.1055 82.25 76.375C82.25 66.6446 92.7883 58.75 105.75 58.75V23.5C105.75 17.8821 109.716 13.0719 115.187 11.9703L173.937 0.220348C177.388 -0.477308 180.95 0.44066 183.704 2.64379V2.6805ZM27.4289 111.625L31.7617 105.089C33.9281 101.821 37.6 99.875 41.5289 99.875H64.1844C68.1133 99.875 71.7852 101.821 73.9516 105.089L78.3211 111.625H88.125C97.8555 111.625 105.75 119.52 105.75 129.25V170.375C105.75 180.105 97.8555 188 88.125 188H17.625C7.89453 188 0 180.105 0 170.375V129.25C0 119.52 7.89453 111.625 17.625 111.625H27.4289ZM70.5 149.813C70.5 145.138 68.6431 140.655 65.3378 137.35C62.0324 134.044 57.5494 132.188 52.875 132.188C48.2006 132.188 43.7176 134.044 40.4122 137.35C37.1069 140.655 35.25 145.138 35.25 149.813C35.25 154.487 37.1069 158.97 40.4122 162.275C43.7176 165.581 48.2006 167.438 52.875 167.438C57.5494 167.438 62.0324 165.581 65.3378 162.275C68.6431 158.97 70.5 154.487 70.5 149.813ZM175.773 102.188L161.673 135.125H182.125C184.585 135.125 186.752 136.63 187.633 138.944C188.514 141.257 187.853 143.827 186.017 145.443L139.017 186.568C136.961 188.367 133.913 188.514 131.71 186.898C129.507 185.283 128.699 182.345 129.764 179.848L143.827 146.875H123.375C120.915 146.875 118.748 145.37 117.867 143.056C116.986 140.743 117.647 138.173 119.483 136.557L166.483 95.4321C168.539 93.6328 171.587 93.486 173.79 95.1016C175.993 96.7172 176.801 99.6547 175.736 102.152L175.773 102.188ZM51.2961 80.4508C48.9094 82.8375 45.0539 82.8375 42.8508 80.4508L7.30703 43.7688C-2.97422 33.1203 -2.42344 15.5321 9.14297 5.618C19.057 -3.0109 34.2586 -1.35856 43.4383 8.00472L47.1102 11.8602L50.5984 8.00472C59.7781 -1.35856 74.7961 -3.0109 85.0773 5.618C96.4602 15.5321 97.0109 33.1203 86.7297 43.7688L51.3328 80.4508H51.2961Z" fill="url(#paint0_linear_12_47)"/>
</g>
<defs>
<linearGradient id="paint0_linear_12_47" x1="94.0098" y1="-0.0202637" x2="94.0098" y2="188.02" gradientUnits="userSpaceOnUse">
<stop stopColor="#D8D8D8"/>
<stop offset="1" stopColor="#727272"/>
</linearGradient>
<clipPath id="clip0_12_47">
<rect width="188" height="188" fill="white"/>
</clipPath>
</defs>
</svg>
