<svg width="188" height="188" viewBox="0 0 188 188" fill="none" xmlns="http://www.w3.org/2000/svg">
<path d="M67.1429 0H120.857V188H67.1429V0ZM0 188V67.1429H53.7143V188H0ZM26.8571 0C19.7342 0 12.903 2.82958 7.86627 7.86627C2.82958 12.903 0 19.7342 0 26.8571C0 33.9801 2.82958 40.8113 7.86627 45.848C12.903 50.8847 19.7342 53.7143 26.8571 53.7143C33.9801 53.7143 40.8113 50.8847 45.848 45.848C50.8847 40.8113 53.7143 33.9801 53.7143 26.8571C53.7143 19.7342 50.8847 12.903 45.848 7.86627C40.8113 2.82958 33.9801 0 26.8571 0ZM134.286 0H188V53.7143H134.286V0ZM188 67.1429H134.286V120.857H188V67.1429Z" fill="url(#paint0_linear_1_37)"/>
<defs>
<linearGradient id="paint0_linear_1_37" x1="94" y1="0" x2="94" y2="188" gradientUnits="userSpaceOnUse">
<stop stop-color="#D8D8D8"/>
<stop offset="1" stop-color="#727272"/>
</linearGradient>
</defs>
</svg>
